<svg width="17" height="16" viewBox="0 0 17 16" fill="none" xmlns="http://www.w3.org/2000/svg">
<path d="M6.38477 15.5557C6.91211 15.5557 7.3252 15.3447 7.61523 14.9141L15.8418 2.22266C16.0527 1.90625 16.1406 1.61621 16.1406 1.34375C16.1406 0.623047 15.6133 0.104492 14.875 0.104492C14.3652 0.104492 14.0576 0.280273 13.75 0.772461L6.34961 12.4795L2.57031 7.71582C2.27148 7.35547 1.96387 7.18848 1.52441 7.18848C0.777344 7.18848 0.241211 7.71582 0.241211 8.44531C0.241211 8.76172 0.34668 9.06055 0.619141 9.37695L5.16309 14.958C5.50586 15.3711 5.88379 15.5557 6.38477 15.5557Z" fill="#A68A7C"/>
</svg>
