<svg width="28" height="28" viewBox="0 0 28 28" fill="none" xmlns="http://www.w3.org/2000/svg">
<path d="M24.2667 10.2667C24.0192 10.2667 23.7818 10.365 23.6067 10.54C23.4317 10.7151 23.3334 10.9525 23.3334 11.2C23.3334 11.4475 23.4317 11.6849 23.6067 11.86C23.7818 12.035 24.0192 12.1333 24.2667 12.1333C24.5142 12.1333 24.7516 12.035 24.9267 11.86C25.1017 11.6849 25.2 11.4475 25.2 11.2C25.2 10.9525 25.1017 10.7151 24.9267 10.54C24.7516 10.365 24.5142 10.2667 24.2667 10.2667ZM14 1.86667C13.7525 1.86667 13.5151 1.965 13.3401 2.14003C13.165 2.31507 13.0667 2.55246 13.0667 2.8C13.0667 3.04754 13.165 3.28493 13.3401 3.45997C13.5151 3.635 13.7525 3.73333 14 3.73333C14.2476 3.73333 14.485 3.635 14.66 3.45997C14.835 3.28493 14.9334 3.04754 14.9334 2.8C14.9334 2.55246 14.835 2.31507 14.66 2.14003C14.485 1.965 14.2476 1.86667 14 1.86667ZM3.73338 10.2667C3.48585 10.2667 3.24845 10.365 3.07342 10.54C2.89838 10.7151 2.80005 10.9525 2.80005 11.2C2.80005 11.4475 2.89838 11.6849 3.07342 11.86C3.24845 12.035 3.48585 12.1333 3.73338 12.1333C3.98092 12.1333 4.21831 12.035 4.39335 11.86C4.56838 11.6849 4.66672 11.4475 4.66672 11.2C4.66672 10.9525 4.56838 10.7151 4.39335 10.54C4.21831 10.365 3.98092 10.2667 3.73338 10.2667ZM23.3334 10.2667H20.5334V5.6C20.5334 5.0848 20.9515 4.66667 21.4667 4.66667H22.4C22.9152 4.66667 23.3334 5.0848 23.3334 5.6V10.2667Z" fill="#402E2E"/>
<path d="M13.9999 2.8V12.1333H24.2666L24.9022 10.5168L14.6327 2.11587L13.9999 2.8ZM13.3671 2.11587L3.09766 10.5168L3.73326 12.1333H13.9999V2.8L13.3671 2.11587Z" fill="#402E2E"/>
<path d="M4.66675 11.2V22.4C4.66675 23.4313 5.50208 24.2667 6.53341 24.2667H21.4667C22.4981 24.2667 23.3334 23.4313 23.3334 22.4V11.2H4.66675ZM20.5334 21.4667H16.8001V14H20.5334V21.4667Z" fill="#402E2E"/>
</svg>
