<svg width="13" height="16" viewBox="0 0 13 16" fill="none" xmlns="http://www.w3.org/2000/svg">
<path d="M1.8418 15.9082H4.06836C4.91797 15.9082 5.36719 15.459 5.36719 14.5996V1.29883C5.36719 0.410156 4.91797 0 4.06836 0H1.8418C0.992188 0 0.542969 0.449219 0.542969 1.29883V14.5996C0.542969 15.459 0.992188 15.9082 1.8418 15.9082ZM8.94141 15.9082H11.1582C12.0176 15.9082 12.457 15.459 12.457 14.5996V1.29883C12.457 0.410156 12.0176 0 11.1582 0H8.94141C8.08203 0 7.63281 0.449219 7.63281 1.29883V14.5996C7.63281 15.459 8.08203 15.9082 8.94141 15.9082Z" fill="white"/>
</svg>
