<svg width="32" height="36" viewBox="0 0 32 36" fill="none" xmlns="http://www.w3.org/2000/svg">
<path d="M16 35.6562C24.7188 35.6562 31.9375 28.4375 31.9375 19.7188C31.9375 14.4688 29.2812 9.75 25.2656 6.82812C24.5781 6.29688 23.7188 6.46875 23.3281 7.10938C22.9375 7.76562 23.1406 8.5 23.7812 8.98438C27.1094 11.3594 29.2656 15.2812 29.2812 19.7188C29.2969 27.0938 23.375 33 16 33C8.625 33 2.73438 27.0938 2.73438 19.7188C2.73438 13.3906 7.07812 8.125 12.9844 6.78125V9.03125C12.9844 10.1406 13.75 10.4375 14.6094 9.82812L19.5938 6.32812C20.2969 5.84375 20.3125 5.09375 19.5938 4.57812L14.625 1.07812C13.75 0.453125 12.9844 0.75 12.9844 1.875V4.07812C5.67188 5.5 0.0625 12.0312 0.0625 19.7188C0.0625 28.4375 7.29688 35.6562 16 35.6562ZM21.1406 26.2969C23.7344 26.2969 25.4375 23.8438 25.4375 20.0938C25.4375 16.3125 23.7344 13.8281 21.1406 13.8281C18.5312 13.8281 16.8438 16.2969 16.8438 20.0938C16.8438 23.8438 18.5469 26.2969 21.1406 26.2969ZM11.0625 26.2969C13.5156 26.2969 15.2656 24.8125 15.2656 22.7031C15.2656 21.25 14.2969 20.0469 12.9219 19.7969C14.0312 19.4844 14.875 18.3281 14.875 17.0156C14.875 15.1406 13.3438 13.8281 11.1562 13.8281C9.26562 13.8281 7.6875 14.8906 7.35938 16.4062C7.3125 16.5938 7.29688 16.75 7.29688 16.9219C7.29688 17.4844 7.65625 17.875 8.1875 17.875C8.64062 17.875 8.92188 17.6406 9.09375 17.1406C9.40625 16.1562 10.0781 15.6406 11.1094 15.6406C12.2031 15.6406 12.9531 16.2969 12.9531 17.25C12.9531 18.25 12.2031 18.9844 11.0938 18.9844H10.4219C9.90625 18.9844 9.5625 19.3438 9.5625 19.8906C9.5625 20.4062 9.92188 20.7969 10.4219 20.7969H11.1562C12.4844 20.7969 13.3125 21.5312 13.3125 22.625C13.3125 23.6875 12.375 24.5 11.0781 24.5C9.98438 24.5 9.20312 23.9531 8.85938 22.9844C8.67188 22.4688 8.39062 22.25 7.96875 22.25C7.4375 22.25 7.0625 22.6562 7.0625 23.2031C7.0625 23.375 7.07812 23.5469 7.125 23.7188C7.46875 25.1875 9.14062 26.2969 11.0625 26.2969ZM21.1406 24.4062C19.7656 24.4062 18.875 22.7656 18.875 20.0938C18.875 17.375 19.75 15.7188 21.1406 15.7188C22.5312 15.7188 23.3906 17.3594 23.3906 20.0938C23.3906 22.7656 22.5156 24.4062 21.1406 24.4062Z" fill="#A68A7C"/>
</svg>
