<svg width="30" height="26" viewBox="0 0 30 26" fill="none" xmlns="http://www.w3.org/2000/svg">
<path d="M2.48438 25.4531H6.04688C7.40625 25.4531 8.125 24.7344 8.125 23.3594V13.3125C8.07812 13.125 8.04688 12.9219 8.04688 12.7188C8.04688 12.5 8.07812 12.2969 8.125 12.1094V2.07812C8.125 0.65625 7.40625 0 6.04688 0H2.48438C1.125 0 0.40625 0.71875 0.40625 2.07812V23.3594C0.40625 24.7344 1.125 25.4531 2.48438 25.4531ZM27.3438 24.9844C28.5781 24.9844 29.5938 24.0625 29.5938 22.3125V3.125C29.5938 1.375 28.5781 0.4375 27.3438 0.4375C26.7031 0.4375 26.1875 0.640625 25.5469 1.01562L9.625 10.3906C8.78125 10.8906 8.29688 11.4688 8.125 12.1094V13.3125C8.29688 13.9688 8.78125 14.5312 9.625 15.0469L25.5469 24.4062C26.1875 24.7812 26.7031 24.9844 27.3438 24.9844Z" fill="#A68A7C"/>
</svg>
