<svg width="30" height="26" viewBox="0 0 30 26" fill="none" xmlns="http://www.w3.org/2000/svg">
<path d="M2.65625 24.9844C3.29688 24.9844 3.8125 24.7812 4.45312 24.4062L20.375 15.0469C21.2188 14.5312 21.7031 13.9688 21.875 13.3125V23.3594C21.875 24.7344 22.5938 25.4531 23.9531 25.4531H27.5156C28.8906 25.4531 29.5938 24.7344 29.5938 23.3594V2.07812C29.5938 0.65625 28.8906 0 27.5156 0H23.9531C22.5938 0 21.875 0.71875 21.875 2.07812V12.1094C21.7031 11.4688 21.2188 10.8906 20.375 10.3906L4.45312 1.01562C3.8125 0.640625 3.29688 0.4375 2.65625 0.4375C1.42188 0.4375 0.40625 1.375 0.40625 3.125V22.3125C0.40625 24.0625 1.42188 24.9844 2.65625 24.9844Z" fill="#A68A7C"/>
</svg>
