<svg width="28" height="28" viewBox="0 0 28 28" fill="none" xmlns="http://www.w3.org/2000/svg">
<g opacity="1">
<path d="M16.1001 16.6525V15.4C16.4156 15.2441 17.3162 14.1717 17.4105 13.3336C17.6588 13.3149 18.048 13.0872 18.1628 12.1893C18.2244 11.7068 17.9789 11.4361 17.8305 11.3503C17.8305 11.3503 18.2001 10.6484 18.2001 9.8C18.2001 8.1004 17.5328 6.65 16.1001 6.65C16.1001 6.65 15.6026 5.6 14.0001 5.6C11.0302 5.6 9.8001 7.50493 9.8001 9.8C9.8001 10.5728 10.1697 11.3503 10.1697 11.3503C10.0213 11.4361 9.77583 11.7077 9.83743 12.1893C9.95223 13.0872 10.3414 13.3149 10.5897 13.3336C10.684 14.1717 11.5856 15.2441 11.9001 15.4V16.6525C11.2001 18.7525 5.6001 18.4333 5.6001 23.3333H22.4001C22.4001 18.4333 16.8001 18.7525 16.1001 16.6525Z" fill="#402E2E"/>
<path d="M22.75 17.3861V16.7216C23.0123 16.5741 23.7636 15.5615 23.842 14.77C24.0483 14.7523 24.3731 14.5376 24.4683 13.6892C24.5196 13.2337 24.3152 12.978 24.192 12.8968C24.192 12.8968 24.5 12.2332 24.5 11.4333C24.5 9.828 23.9437 8.45787 22.75 8.45787C22.75 8.45787 22.3356 7.46573 21 7.46573C20.5221 7.46573 20.1152 7.55067 19.7419 7.67387C19.9463 8.3076 20.0667 9.01507 20.0667 9.8C20.0667 10.2965 19.9892 10.7511 19.8903 11.1319C20.0256 11.5323 20.0713 11.9737 20.0135 12.4255C19.8819 13.4531 19.4824 14.1503 18.9812 14.5899C18.8356 14.9427 18.6368 15.2777 18.4221 15.5969C18.6872 16.1411 19.0755 16.6245 19.25 16.7225V16.7347C21.1512 17.626 24.2667 19.124 24.2667 23.3333H28C28 18.7059 23.3333 19.3695 22.75 17.3861ZM8.75 16.7337V16.7216C8.92453 16.6236 9.3128 16.1411 9.57787 15.596C9.3632 15.2768 9.1644 14.9417 9.0188 14.5889C8.5176 14.1503 8.1172 13.4521 7.98653 12.4255C7.92773 11.9681 7.97627 11.5211 8.1144 11.1169C8.0136 10.7333 7.93333 10.2769 7.93333 9.8C7.93333 9.02813 8.04347 8.31787 8.24227 7.67013C7.8736 7.54973 7.47133 7.46667 7 7.46667C5.6644 7.46667 5.25 8.4588 5.25 8.4588C4.05627 8.4588 3.5 9.82893 3.5 11.4343C3.5 12.2351 3.808 12.8977 3.808 12.8977C3.68387 12.978 3.4804 13.2347 3.53173 13.6901C3.62693 14.5385 3.95173 14.7532 4.158 14.7709C4.2364 15.5624 4.98773 16.5751 5.25 16.7225V17.3871C4.66667 19.3695 0 18.7059 0 23.3333H3.73333C3.73333 19.124 6.8488 17.626 8.75 16.7337Z" fill="#402E2E"/>
</g>
</svg>
